<svg width="256" height="256" viewBox="0 0 256 256" fill="none" xmlns="http://www.w3.org/2000/svg">
<path d="M193.887 93.874C192.875 94.6644 175.013 104.8 175.013 127.337C175.013 153.405 197.742 162.627 198.422 162.855C198.318 163.418 194.811 175.485 186.439 187.782C178.973 198.602 171.175 209.405 159.314 209.405C147.452 209.405 144.399 202.467 130.706 202.467C117.362 202.467 112.617 209.634 101.767 209.634C90.9173 209.634 83.3468 199.621 74.6424 187.325C64.56 172.886 56.4139 150.454 56.4139 129.164C56.4139 95.0157 78.4626 76.9053 100.162 76.9053C111.693 76.9053 121.304 84.5289 128.543 84.5289C135.433 84.5289 146.179 76.4485 159.296 76.4485C164.268 76.4485 182.13 76.9053 193.887 93.874ZM153.069 61.9918C158.494 55.5099 162.331 46.5162 162.331 37.5224C162.331 36.2752 162.227 35.0105 162 33.9916C153.174 34.3254 142.673 39.9114 136.34 47.3066C131.369 52.998 126.729 61.9918 126.729 71.1085C126.729 72.4786 126.956 73.8488 127.06 74.2879C127.619 74.3933 128.526 74.5163 129.433 74.5163C137.352 74.5163 147.312 69.1762 153.069 61.9918Z" fill="white"/>
</svg>
