<svg width="104" height="104" viewBox="0 0 104 104" fill="none" xmlns="http://www.w3.org/2000/svg">
<path d="M87.5728 34.0478C87.0313 34.4708 77.4718 39.8952 77.4718 51.9566C77.4718 65.9076 89.6359 70.8431 90 70.9653C89.944 71.2661 88.0676 77.7246 83.5865 84.3052C79.591 90.0962 75.418 95.8778 69.0699 95.8778C62.7218 95.8778 61.0881 92.1644 53.7597 92.1644C46.6181 92.1644 44.0789 96 38.2722 96C32.4655 96 28.414 90.6415 23.7556 84.0608C18.3597 76.3332 14 64.3282 14 52.9343C14 34.6589 25.8 24.9665 37.4133 24.9665C43.5841 24.9665 48.7279 29.0465 52.6021 29.0465C56.2896 29.0465 62.0403 24.7221 69.0606 24.7221C71.7212 24.7221 81.2807 24.9665 87.5728 34.0478V34.0478ZM65.7278 16.9851C68.6311 13.5162 70.6849 8.70287 70.6849 3.88959C70.6849 3.22212 70.6289 2.54525 70.5076 2C65.7838 2.17862 60.1639 5.16812 56.7751 9.12591C54.1145 12.1718 51.6313 16.9851 51.6313 21.8642C51.6313 22.5975 51.7526 23.3307 51.8086 23.5658C52.1074 23.6222 52.5928 23.688 53.0782 23.688C57.3165 23.688 62.6471 20.8301 65.7278 16.9851Z" fill="white"/>
</svg>
