<svg width="256" height="256" viewBox="0 0 256 256" fill="none" xmlns="http://www.w3.org/2000/svg">
<path d="M81.5492 64.8276C100.351 79.0997 120.575 108.037 128 123.567C135.426 108.039 155.649 79.0994 174.452 64.8276C188.018 54.5294 210 46.5613 210 71.9163C210 76.98 207.129 114.454 205.444 120.538C199.591 141.69 178.259 147.084 159.284 143.819C192.452 149.527 200.889 168.432 182.668 187.338C148.061 223.243 132.928 178.329 129.048 166.82C128.338 164.711 128.005 163.724 128 164.563C127.995 163.724 127.662 164.711 126.952 166.82C123.074 178.329 107.941 223.244 73.3324 187.338C55.1104 168.432 63.5476 149.526 96.7156 143.819C77.7403 147.084 56.4086 141.69 50.5555 120.538C48.8713 114.454 46 76.9795 46 71.9163C46 46.5613 67.9821 54.5294 81.5482 64.8276H81.5492Z" fill="white"/>
</svg>
