<svg width="120" height="120" viewBox="0 0 120 120" fill="none" xmlns="http://www.w3.org/2000/svg">
<rect width="120" height="120" fill="#8793FF"/>
<g clip-path="url(#clip0)">
<path d="M92.575 29.59C86.5837 26.7963 80.159 24.738 73.4416 23.5591C73.3193 23.5364 73.1971 23.5933 73.134 23.707C72.3078 25.2004 71.3925 27.1488 70.7516 28.6802C63.5266 27.5809 56.3386 27.5809 49.2618 28.6802C48.6207 27.1148 47.6722 25.2004 46.8423 23.707C46.7792 23.597 46.657 23.5402 46.5347 23.5591C39.821 24.7342 33.3963 26.7925 27.4013 29.59C27.3494 29.6127 27.3049 29.6507 27.2754 29.6999C15.0891 48.2018 11.7508 66.2489 13.3885 84.0723C13.3959 84.1595 13.444 84.2429 13.5107 84.2959C21.5509 90.2963 29.3392 93.9392 36.9828 96.3537C37.1052 96.3917 37.2348 96.3462 37.3126 96.2438C39.1207 93.7345 40.7325 91.0887 42.1144 88.3063C42.196 88.1434 42.1182 87.95 41.9515 87.8856C39.3949 86.9 36.9606 85.6984 34.6189 84.3338C34.4337 84.2239 34.4189 83.9547 34.5893 83.8258C35.0821 83.4505 35.575 83.0601 36.0455 82.6659C36.1306 82.5939 36.2492 82.5787 36.3493 82.6242C51.733 89.7619 68.3877 89.7619 83.5899 82.6242C83.69 82.5749 83.8086 82.5901 83.8974 82.6621C84.3681 83.0563 84.8609 83.4505 85.3574 83.8258C85.5278 83.9547 85.5166 84.2239 85.3314 84.3338C82.9898 85.7249 80.5554 86.9 77.9952 87.8818C77.8285 87.9462 77.7543 88.1434 77.8359 88.3063C79.2475 91.0848 80.8593 93.7306 82.634 96.24C82.7081 96.3462 82.8415 96.3917 82.9638 96.3537C90.6445 93.9392 98.4328 90.2963 106.473 84.2959C106.543 84.2429 106.588 84.1632 106.595 84.076C108.555 63.4703 103.312 45.5712 92.6972 29.7037C92.6712 29.6507 92.6269 29.6127 92.575 29.59ZM44.4118 73.2197C39.7802 73.2197 35.9639 68.8985 35.9639 63.5916C35.9639 58.2848 39.7062 53.9636 44.4118 53.9636C49.1543 53.9636 52.9336 58.3227 52.8594 63.5916C52.8594 68.8985 49.1172 73.2197 44.4118 73.2197ZM75.6461 73.2197C71.0147 73.2197 67.1984 68.8985 67.1984 63.5916C67.1984 58.2848 70.9405 53.9636 75.6461 53.9636C80.3887 53.9636 84.1679 58.3227 84.0939 63.5916C84.0939 68.8985 80.3887 73.2197 75.6461 73.2197Z" fill="white"/>
</g>
<defs>
<clipPath id="clip0">
<rect width="94" height="74" fill="white" transform="translate(13 23)"/>
</clipPath>
</defs>
</svg>
