<svg width="256" height="256" viewBox="0 0 256 256" fill="none" xmlns="http://www.w3.org/2000/svg">
<path d="M182.818 76.9665C172.677 72.238 161.803 68.7542 150.433 66.759C150.226 66.7204 150.019 66.8167 149.913 67.0092C148.514 69.5369 146.965 72.8346 145.88 75.4266C133.651 73.5661 121.485 73.5661 109.507 75.4266C108.422 72.777 106.817 69.5369 105.412 67.0092C105.305 66.8231 105.099 66.7269 104.892 66.759C93.5281 68.7479 82.6539 72.2316 72.5071 76.9665C72.4193 77.005 72.344 77.0692 72.294 77.1526C51.6679 108.468 46.0176 139.014 48.7894 169.181C48.802 169.329 48.8835 169.47 48.9964 169.56C62.6049 179.716 75.787 185.882 88.7244 189.968C88.9315 190.033 89.1508 189.956 89.2826 189.782C92.3429 185.535 95.071 181.057 97.41 176.348C97.548 176.072 97.4162 175.744 97.1341 175.635C92.807 173.967 88.6868 171.933 84.7234 169.624C84.4099 169.438 84.3848 168.982 84.6732 168.764C85.5072 168.129 86.3415 167.468 87.1379 166.801C87.282 166.679 87.4827 166.653 87.6522 166.73C113.69 178.811 141.879 178.811 167.61 166.73C167.779 166.647 167.98 166.673 168.13 166.794C168.927 167.462 169.761 168.129 170.601 168.764C170.89 168.982 170.871 169.438 170.557 169.624C166.594 171.978 162.474 173.967 158.14 175.629C157.858 175.738 157.733 176.072 157.871 176.348C160.26 181.05 162.988 185.529 165.992 189.776C166.117 189.956 166.343 190.033 166.55 189.968C179.55 185.882 192.732 179.716 206.341 169.56C206.46 169.47 206.535 169.335 206.548 169.188C209.865 134.311 200.991 104.016 183.024 77.1589C182.98 77.0692 182.905 77.005 182.818 76.9665ZM101.298 150.813C93.4591 150.813 86.9998 143.499 86.9998 134.516C86.9998 125.534 93.3338 118.22 101.298 118.22C109.325 118.22 115.722 125.598 115.597 134.516C115.597 143.499 109.263 150.813 101.298 150.813ZM154.164 150.813C146.325 150.813 139.866 143.499 139.866 134.516C139.866 125.534 146.2 118.22 154.164 118.22C162.192 118.22 168.588 125.598 168.463 134.516C168.463 143.499 162.192 150.813 154.164 150.813Z" fill="white"/>
</svg>
