<svg width="100" height="100" viewBox="0 0 100 100" fill="none" xmlns="http://www.w3.org/2000/svg">
<path d="M82.575 20.0358C76.5837 17.2421 70.159 15.1838 63.4416 14.0049C63.3193 13.9822 63.1971 14.0391 63.134 14.1528C62.3078 15.6462 61.3925 17.5946 60.7516 19.126C53.5266 18.0268 46.3386 18.0268 39.2618 19.126C38.6207 17.5606 37.6722 15.6462 36.8423 14.1528C36.7792 14.0428 36.657 13.986 36.5347 14.0049C29.821 15.18 23.3963 17.2383 17.4013 20.0358C17.3494 20.0585 17.3049 20.0965 17.2754 20.1457C5.08912 38.6476 1.75078 56.6947 3.38846 74.5181C3.39587 74.6053 3.44403 74.6887 3.51073 74.7417C11.5509 80.7421 19.3392 84.385 26.9828 86.7995C27.1052 86.8375 27.2348 86.792 27.3126 86.6896C29.1207 84.1803 30.7325 81.5345 32.1144 78.7521C32.196 78.5892 32.1182 78.3958 31.9515 78.3314C29.3949 77.3458 26.9606 76.1442 24.6189 74.7796C24.4337 74.6697 24.4189 74.4005 24.5893 74.2716C25.0821 73.8963 25.575 73.5059 26.0455 73.1117C26.1306 73.0397 26.2492 73.0245 26.3493 73.07C41.733 80.2077 58.3877 80.2077 73.5899 73.07C73.69 73.0207 73.8086 73.0359 73.8974 73.1079C74.3681 73.5021 74.8609 73.8963 75.3574 74.2716C75.5278 74.4005 75.5166 74.6697 75.3314 74.7796C72.9898 76.1707 70.5554 77.3458 67.9952 78.3276C67.8285 78.392 67.7543 78.5892 67.8359 78.7521C69.2475 81.5306 70.8593 84.1764 72.634 86.6858C72.7081 86.792 72.8415 86.8375 72.9638 86.7995C80.6445 84.385 88.4328 80.7421 96.4729 74.7417C96.5434 74.6887 96.5879 74.609 96.5953 74.5218C98.5552 53.9161 93.3124 36.017 82.6972 20.1495C82.6712 20.0965 82.6269 20.0585 82.575 20.0358ZM34.4118 63.6655C29.7802 63.6655 25.9639 59.3443 25.9639 54.0374C25.9639 48.7306 29.7062 44.4094 34.4118 44.4094C39.1543 44.4094 42.9336 48.7685 42.8594 54.0374C42.8594 59.3443 39.1172 63.6655 34.4118 63.6655ZM65.6461 63.6655C61.0147 63.6655 57.1984 59.3443 57.1984 54.0374C57.1984 48.7306 60.9405 44.4094 65.6461 44.4094C70.3887 44.4094 74.1679 48.7685 74.0939 54.0374C74.0939 59.3443 70.3887 63.6655 65.6461 63.6655Z" fill="white"/>
</svg>
