<svg width="256" height="256" viewBox="0 0 256 256" fill="none" xmlns="http://www.w3.org/2000/svg">
<path d="M128.211 41.8911C175.885 41.8911 214.532 80.5376 214.532 128.212C214.532 175.886 175.885 214.532 128.211 214.532C80.5371 214.532 41.8906 175.886 41.8906 128.212C41.8906 80.5376 80.5371 41.8911 128.211 41.8911ZM122.331 168.829C125.664 172.233 131.052 172.227 134.389 168.787L162.942 139.377C171.055 131.238 158.882 119.029 150.767 127.168L140.89 137.109C138.64 139.373 136.818 138.604 136.818 135.431V95.8515C136.818 91.0947 132.954 87.241 128.209 87.241C123.457 87.241 119.603 91.1207 119.603 95.8515V135.431C119.603 138.622 117.779 139.371 115.531 137.109L105.656 127.168C97.5389 119.029 85.3682 131.238 93.4808 139.377L122.331 168.829Z" fill="white"/>
</svg>
