<svg width="102" height="102" viewBox="0 0 102 102" fill="none" xmlns="http://www.w3.org/2000/svg">
<path d="M51 0C79.1669 0 102 22.8331 102 51C102 79.1669 79.1669 102 51 102C22.8331 102 0 79.1669 0 51C0 22.8331 22.8331 0 51 0ZM47.5256 74.9973C49.4953 77.0085 52.6781 77.0049 54.6501 74.9724L71.5196 57.5966C76.3127 52.788 69.1207 45.5746 64.3265 50.3831L58.4909 56.2566C57.1616 57.5942 56.0849 57.1401 56.0849 55.2653V31.8809C56.0849 29.0705 53.8022 26.7936 50.9988 26.7936C48.1908 26.7936 45.914 29.0858 45.914 31.8809V55.2653C45.914 57.1507 44.8361 57.5931 43.508 56.2566L37.6736 50.3831C32.8781 45.5746 25.6874 52.788 30.4805 57.5966L47.5256 74.9973Z" fill="white"/>
</svg>
