<svg width="256" height="256" viewBox="0 0 256 256" fill="none" xmlns="http://www.w3.org/2000/svg">
<rect x="81" y="81" width="94" height="94" fill="#5F4E9A"/>
<path d="M232.904 125.371C233.329 126.19 233.319 127.164 232.87 127.998C215.457 160.348 179.868 194.008 128.033 194.008C102.555 194.008 79.6747 182.936 61.5164 169.074C43.3547 155.208 30.0701 138.666 23.8151 128.019C23.3267 127.188 23.3181 126.179 23.7902 125.345C30.0061 114.36 43.2657 98.2991 61.4312 84.9952C79.5859 71.6992 102.498 61.2597 128.033 61.2597C179.672 61.2597 218.676 97.9297 232.904 125.371ZM128.784 169.665C152.176 169.665 171.14 150.702 171.14 127.309C171.14 126.624 171.124 125.942 171.091 125.265C171.006 123.467 169.568 122.553 168.334 122.423C167.14 122.297 165.677 122.815 164.971 124.224C160.919 132.312 152.557 137.858 142.903 137.858C129.279 137.858 118.235 126.814 118.235 113.191C118.235 103.536 123.781 95.1744 131.869 91.1222C133.278 90.4163 133.796 88.9528 133.67 87.7591C133.54 86.5254 132.626 85.0871 130.828 85.0016C130.151 84.9694 129.469 84.9531 128.784 84.9531C105.391 84.9531 86.4277 103.917 86.4277 127.309C86.4277 150.702 105.391 169.665 128.784 169.665Z" fill="white" stroke="white" stroke-width="3.57025"/>
</svg>
