<svg width="256" height="256" viewBox="0 0 256 256" fill="none" xmlns="http://www.w3.org/2000/svg">
<path d="M38.6989 73.0003C38.6989 68.9134 42.012 65.6003 46.0989 65.6003H208.899C212.986 65.6003 216.299 68.9134 216.299 73.0003C216.299 77.0872 212.986 80.4003 208.899 80.4003H46.0989C42.012 80.4003 38.6989 77.0872 38.6989 73.0003Z" fill="white"/>
<path d="M38.6989 184C38.6989 179.913 42.012 176.6 46.0989 176.6H208.899C212.986 176.6 216.299 179.913 216.299 184C216.299 188.087 212.986 191.4 208.899 191.4H46.0989C42.012 191.4 38.6989 188.087 38.6989 184Z" fill="white"/>
<path d="M38.6989 128.5C38.6989 124.413 42.012 121.1 46.0989 121.1H208.899C212.986 121.1 216.299 124.413 216.299 128.5C216.299 132.587 212.986 135.9 208.899 135.9H46.0989C42.012 135.9 38.6989 132.587 38.6989 128.5Z" fill="white"/>
</svg>
