<svg width="102" height="102" viewBox="0 0 102 102" fill="none" xmlns="http://www.w3.org/2000/svg">
<circle cx="50.956" cy="51.0448" r="14.3803" fill="white"/>
<path fill-rule="evenodd" clip-rule="evenodd" d="M7 25.75C7 15.3947 15.3947 7 25.75 7H76.25C86.6053 7 95 15.3947 95 25.75V76.25C95 86.6053 86.6053 95 76.25 95H25.75C15.3947 95 7 86.6053 7 76.25V25.75ZM76.4382 51.044C76.4382 65.1177 65.0293 76.5266 50.9557 76.5266C36.8821 76.5266 25.4731 65.1177 25.4731 51.044C25.4731 36.9704 36.8821 25.5615 50.9557 25.5615C65.0293 25.5615 76.4382 36.9704 76.4382 51.044ZM79.1499 32.0557C82.7198 32.0557 85.6138 29.1617 85.6138 25.5918C85.6138 22.0219 82.7198 19.1279 79.1499 19.1279C75.58 19.1279 72.686 22.0219 72.686 25.5918C72.686 29.1617 75.58 32.0557 79.1499 32.0557Z" fill="white"/>
</svg>
