<svg width="256" height="256" viewBox="0 0 256 256" fill="none" xmlns="http://www.w3.org/2000/svg">
<path d="M152.264 128.076C152.264 141.518 141.367 152.416 127.925 152.416C114.482 152.416 103.585 141.518 103.585 128.076C103.585 114.634 114.482 103.736 127.925 103.736C141.367 103.736 152.264 114.634 152.264 128.076Z" fill="white"/>
<path fill-rule="evenodd" clip-rule="evenodd" d="M53.5273 75.3455C53.5273 63.2957 63.2957 53.5273 75.3455 53.5273H180.655C192.704 53.5273 202.473 63.2957 202.473 75.3455V180.655C202.473 192.704 192.704 202.473 180.655 202.473H75.3455C63.2957 202.473 53.5273 192.704 53.5273 180.655V75.3455ZM171.056 128.075C171.056 151.895 151.746 171.205 127.925 171.205C104.105 171.205 84.7944 151.895 84.7944 128.075C84.7944 104.254 104.105 84.9439 127.925 84.9439C151.746 84.9439 171.056 104.254 171.056 128.075ZM175.646 95.9356C181.689 95.9356 186.587 91.0374 186.587 84.9951C186.587 78.9528 181.689 74.0546 175.646 74.0546C169.604 74.0546 164.706 78.9528 164.706 84.9951C164.706 91.0374 169.604 95.9356 175.646 95.9356Z" fill="white"/>
</svg>
