<svg xmlns="http://www.w3.org/2000/svg" width="752" height="137" viewBox="0 0 752 137">
  <defs>
    <style>
      .cls-1, .cls-3 {
        fill: #222;
      }

      .cls-1 {
        fill-rule: evenodd;
      }

      .cls-2 {
        fill: #7d55ce;
      }
    </style>
  </defs>
  <path id="Half_Asleep._copy" data-name="Half Asleep. copy" class="cls-1" d="M109.842,105.283V11.692H92.814V48.257H54.4V11.692H37.372v93.591H54.4V64.494H92.814v40.789h17.028Zm77.906-.792V92.347a9.99,9.99,0,0,1-2.112.264c-2.772,0-3.828-1.188-3.828-4.356V62.778c0-4.62-.264-9.5-1.98-13.86-3.96-10.3-13.993-13.992-25.741-13.992-15.313,0-27.589,6.864-28.513,22.309h15.973c0.4-6.336,4.884-9.768,12.54-9.768,9.372,0,11.616,4.356,11.616,10.824v4.224l-20.2,1.452c-13.069.924-23.233,8.448-23.233,21.517,0,11.22,8.448,21.517,24.817,21.517,9.768,0,17.688-4.752,20.856-10.3,0.528,5.148,4.488,9.636,11.617,9.636A16.682,16.682,0,0,0,187.748,104.491ZM165.7,77.958c0,10.164-7.26,15.708-17.556,15.708-5.148,0-9.769-3.3-9.769-8.58,0-5.544,4.885-8.58,9.9-8.976L165.7,74.79v3.168Zm58.383,27.193V91.291c-0.924,0-1.32.132-2.772,0.132-5.676,0-6.6-2.64-6.6-6.6V9.844H198.081v77.75c0,13.069,7.525,18.481,18.745,18.481A27.39,27.39,0,0,0,224.086,105.151Zm49.34-82.106V9.844A56.327,56.327,0,0,0,260.49,8.392c-14.784,0-23.365,8.976-23.365,21.649v6.6H225.509v13.6h11.616v55.046h16.5V50.237h18.348v-13.6H253.626V30.3c0-4.884,3.036-8.316,8.976-8.316A52.763,52.763,0,0,1,273.426,23.045Zm111.937,82.238L352.494,11.692H333.881l-32.868,93.591h17.16l6.072-17.952H361.47l6.072,17.953h17.821ZM356.19,72.018H329.525l13.333-39.469ZM447.032,84.03c0-10.824-7.92-17.689-18.745-19.4-6.732-1.056-8.448-1.188-14.652-1.98-3.7-.528-7.92-1.98-7.92-6.864a7.871,7.871,0,0,1,5.28-7.26,17.058,17.058,0,0,1,7.128-1.056c3.432,0,7,1.188,8.976,3.168a9.407,9.407,0,0,1,2.772,6.468H445.58c0-5.016-2.376-10.164-6.072-14.124-5.017-5.412-13.333-8.052-21.517-8.052-8.58,0-15.841,2.508-20.857,6.864a19.526,19.526,0,0,0-7,15.444c0,8.712,6.336,16.368,15.709,18.348,6.072,1.32,12.936,1.716,19.008,2.64,4.224,0.66,6.864,3.3,6.864,7.26,0,7.524-8.448,8.712-13.992,8.712-4.752,0-7.788-.924-10.428-3.036a11.05,11.05,0,0,1-3.7-8.052H388.158c0,6.468,3.3,12.144,7.26,15.972,5.676,5.412,13.465,7.92,22.177,7.92,9.372,0,17.952-2.376,23.5-7.92A20.436,20.436,0,0,0,447.032,84.03Zm38.146,21.121V91.291c-0.924,0-1.32.132-2.772,0.132-5.676,0-6.6-2.64-6.6-6.6V9.844H459.174v77.75c0,13.069,7.524,18.481,18.744,18.481A27.39,27.39,0,0,0,485.178,105.151ZM553.686,71.49c0.264-8.58-.924-16.368-5.941-23.893-5.676-8.58-14.916-12.672-25.08-12.672-9.373,0-16.765,3.432-21.913,8.712-6.6,6.732-9.9,16.5-9.9,27.457,0,11.22,3.7,20.857,10.56,27.457A29.945,29.945,0,0,0,523.061,107c8.712,0,17.292-2.772,23.1-9.636,2.64-3.168,5.413-8.58,5.809-12.672H536.129a12.476,12.476,0,0,1-3.3,5.808c-2.376,2.376-5.28,3.3-10.032,3.3a14.48,14.48,0,0,1-10.165-4.224c-3.3-3.168-5.148-8.184-5.016-13.464h45.938C553.554,74.658,553.686,71.49,553.686,71.49Zm-16.5-7.392h-29.7c0.132-4.488,1.188-7.656,3.564-10.692a14.076,14.076,0,0,1,11.485-5.28c4.752,0,8.184,1.584,10.428,3.96C535.6,54.99,537.053,58.95,537.185,64.1Zm87.872,7.392c0.264-8.58-.924-16.368-5.94-23.893-5.676-8.58-14.917-12.672-25.081-12.672-9.372,0-16.764,3.432-21.913,8.712-6.6,6.732-9.9,16.5-9.9,27.457,0,11.22,3.7,20.857,10.56,27.457A29.949,29.949,0,0,0,594.432,107c8.712,0,17.292-2.772,23.1-9.636,2.64-3.168,5.412-8.58,5.808-12.672H607.5a12.476,12.476,0,0,1-3.3,5.808c-2.376,2.376-5.28,3.3-10.032,3.3A14.478,14.478,0,0,1,584,89.575c-3.3-3.168-5.148-8.184-5.016-13.464h45.937C624.925,74.658,625.057,71.49,625.057,71.49Zm-16.5-7.392h-29.7c0.132-4.488,1.188-7.656,3.564-10.692a14.074,14.074,0,0,1,11.484-5.28c4.752,0,8.184,1.584,10.428,3.96C606.972,54.99,608.424,58.95,608.556,64.1Zm92.466,6.732c0-12.936-4.092-23.233-12.276-29.965a25.864,25.864,0,0,0-16.633-5.808c-7.524,0-15.18,2.772-19.272,9.108l-1.056-7.524H637.528v94.911h16.5V100.267C657.2,104.1,663.8,107,671.981,107c7,0,12.54-2.112,16.765-5.544C696.93,94.723,701.022,84.294,701.022,70.83Zm-16.765.264c0,5.94-.924,12.144-4.356,16.633a13.548,13.548,0,0,1-11.088,5.412c-12.936,0-15.576-12.144-15.576-22.045s2.64-22.177,15.576-22.177A13.548,13.548,0,0,1,679.9,54.33C683.333,58.818,684.257,65.154,684.257,71.094Z"/>
  <rect class="cls-2" x="711" y="85" width="20" height="20"/>
  <rect class="cls-3" x="503" y="45" width="39" height="22"/>
  <rect id="Rectangle_1_copy" data-name="Rectangle 1 copy" class="cls-3" x="574" y="45" width="39" height="22"/>
</svg>
