<svg id="l" xmlns="http://www.w3.org/2000/svg" width="752" height="137" viewBox="0 0 752 137">
  <defs>
    <style>
      .cls-1, .cls-3 {
        fill: #222;
      }

      .cls-2 {
        fill: #fff;
      }

      .cls-3 {
        fill-rule: evenodd;
      }
    </style>
  </defs>
  <ellipse class="cls-1" cx="535" cy="70" rx="12" ry="14"/>
  <circle class="cls-2" cx="543" cy="68" r="6"/>
  <ellipse id="Ellipse_1_copy" data-name="Ellipse 1 copy" class="cls-1" cx="605" cy="70" rx="12" ry="14"/>
  <circle id="Ellipse_2_copy" data-name="Ellipse 2 copy" class="cls-2" cx="613" cy="68" r="6"/>
  <path id="ee" class="cls-3" d="M562,69c0-16.632-10.949-32.435-28.77-32.435a26.842,26.842,0,0,0-22.44,11.484c-5.149,7-6.469,15.18-6.469,23.5,0,10.032,3.036,18.745,8.449,25.081A26.778,26.778,0,0,0,533.758,106a26.4,26.4,0,0,0,18.877-7.656,24.54,24.54,0,0,0,7.392-13.86h-6.864a18.46,18.46,0,0,1-5.016,9.372,19.59,19.59,0,0,1-14.389,5.808c-7.128,0-12.276-2.64-15.972-7C513.562,87.651,511,83.469,511,69h51Zm69,0c0-16.632-10.483-32.435-28.3-32.435a26.842,26.842,0,0,0-22.44,11.484c-5.148,7-6.469,15.18-6.469,23.5,0,10.032,3.037,18.745,8.449,25.081A26.778,26.778,0,0,0,603.224,106,26.4,26.4,0,0,0,622.1,98.343a24.54,24.54,0,0,0,7.392-13.86h-6.864a18.46,18.46,0,0,1-5.016,9.372,19.587,19.587,0,0,1-14.389,5.808c-7.128,0-12.276-2.64-15.972-7C583.028,87.651,580,82.24,580,69,580,69,581.417,69.346,631,69Z"/>
  <path id="type" class="cls-3" d="M119.842,105.283V11.692H102.814V48.257H64.4V11.692H47.372v93.591H64.4V64.494h38.413v40.789h17.028Zm77.906-.792V92.347a9.99,9.99,0,0,1-2.112.264c-2.772,0-3.828-1.188-3.828-4.356V62.778c0-4.62-.264-9.5-1.98-13.86-3.961-10.3-13.993-13.992-25.741-13.992-15.313,0-27.589,6.864-28.513,22.309h15.973c0.4-6.336,4.884-9.768,12.54-9.768,9.372,0,11.616,4.356,11.616,10.824v4.224l-20.2,1.452c-13.069.924-23.233,8.448-23.233,21.517,0,11.22,8.448,21.517,24.817,21.517,9.768,0,17.688-4.752,20.856-10.3,0.528,5.148,4.488,9.636,11.617,9.636A16.682,16.682,0,0,0,197.748,104.491ZM175.7,77.958c0,10.164-7.26,15.708-17.556,15.708-5.148,0-9.769-3.3-9.769-8.58,0-5.544,4.885-8.58,9.9-8.976L175.7,74.79v3.168Zm58.383,27.193V91.291c-0.924,0-1.32.132-2.772,0.132-5.676,0-6.6-2.64-6.6-6.6V9.844H208.081v77.75c0,13.069,7.524,18.481,18.745,18.481A27.39,27.39,0,0,0,234.086,105.151Zm49.34-82.106V9.844A56.327,56.327,0,0,0,270.49,8.392c-14.785,0-23.365,8.976-23.365,21.649v6.6H235.509v13.6h11.616v55.046h16.5V50.237h18.348v-13.6H263.626V30.3c0-4.884,3.036-8.316,8.976-8.316A52.763,52.763,0,0,1,283.426,23.045Zm111.937,82.238L362.494,11.692H343.881l-32.869,93.591h17.161l6.072-17.952H371.47l6.072,17.953h17.821ZM366.19,72.018H339.525l13.333-39.469ZM457.032,84.03c0-10.824-7.921-17.689-18.745-19.4-6.732-1.056-8.448-1.188-14.652-1.98-3.7-.528-7.921-1.98-7.921-6.864A7.872,7.872,0,0,1,421,48.521a17.058,17.058,0,0,1,7.128-1.056c3.432,0,7,1.188,8.976,3.168a9.407,9.407,0,0,1,2.772,6.468H455.58c0-5.016-2.376-10.164-6.073-14.124-5.016-5.412-13.332-8.052-21.516-8.052-8.58,0-15.841,2.508-20.857,6.864a19.526,19.526,0,0,0-7,15.444c0,8.712,6.336,16.368,15.708,18.348,6.073,1.32,12.937,1.716,19.009,2.64,4.224,0.66,6.864,3.3,6.864,7.26,0,7.524-8.448,8.712-13.992,8.712-4.752,0-7.788-.924-10.428-3.036a11.047,11.047,0,0,1-3.7-8.052H398.158c0,6.468,3.3,12.144,7.26,15.972,5.676,5.412,13.465,7.92,22.177,7.92,9.372,0,17.952-2.376,23.5-7.92A20.433,20.433,0,0,0,457.032,84.03Zm38.146,21.121V91.291c-0.924,0-1.32.132-2.772,0.132-5.676,0-6.6-2.64-6.6-6.6V9.844H469.174v77.75c0,13.069,7.524,18.481,18.744,18.481A27.39,27.39,0,0,0,495.178,105.151ZM706.022,70.83c0-12.936-4.092-23.233-12.276-29.965a25.864,25.864,0,0,0-16.633-5.808c-7.524,0-15.18,2.772-19.272,9.108l-1.056-7.524H642.528v94.911h16.5V100.267C662.2,104.1,668.8,107,676.981,107c7,0,12.54-2.112,16.765-5.544C701.93,94.723,706.022,84.294,706.022,70.83Zm-16.765.264c0,5.94-.924,12.144-4.356,16.633a13.548,13.548,0,0,1-11.088,5.412c-12.936,0-15.576-12.144-15.576-22.045s2.64-22.177,15.576-22.177A13.548,13.548,0,0,1,684.9,54.33C688.333,58.818,689.257,65.154,689.257,71.094Z"/>
</svg>
