<svg width="100" height="100" viewBox="0 0 100 100" fill="none" xmlns="http://www.w3.org/2000/svg">
<path fill-rule="evenodd" clip-rule="evenodd" d="M3.11431 49.847L91.7181 4.23293C93.2661 3.43602 95.0415 4.80497 94.6645 6.50471L77.7201 82.8914C77.4377 84.1649 76.0555 84.8562 74.8671 84.3184L55.6995 75.6448C54.8267 75.2498 53.7968 75.5104 53.2169 76.2729L39.4593 94.3635C38.434 95.7117 36.3095 95.3101 35.8472 93.6806L27.3762 63.8272C27.2005 63.2079 26.7446 62.7067 26.1446 62.4733L3.30974 53.5887C1.65962 52.9467 1.54005 50.6575 3.11431 49.847ZM73.0154 28.1522L37.9765 57.7092C36.1058 59.2872 35.2664 61.7735 35.7978 64.1625L38.506 76.3381C38.6815 77.1274 39.7716 77.2154 40.0715 76.4645L44.4327 65.5433C44.4474 65.5063 44.4675 65.4716 44.4923 65.4404L73.6024 28.7216C73.9104 28.3331 73.3944 27.8326 73.0154 28.1522Z" fill="white"/>
</svg>
