<svg width="120" height="120" viewBox="0 0 120 120" fill="none" xmlns="http://www.w3.org/2000/svg">
<rect width="120" height="120" fill="#C3A7FF"/>
<path d="M100.011 15.9436L13.2568 60.6058C11.4611 61.5302 11.5974 64.1415 13.4797 64.8739L35.3704 73.3911C36.0548 73.6573 36.5748 74.229 36.7753 74.9355L44.9743 103.831C45.5017 105.689 47.9251 106.148 49.0946 104.61L62.2322 87.3344C62.8937 86.4646 64.0684 86.1674 65.064 86.6179L83.5238 94.9712C84.8793 95.5846 86.4559 94.7961 86.7781 93.3435L103.372 18.535C103.802 16.5961 101.777 15.0346 100.011 15.9436Z" fill="white"/>
<path d="M47.7047 68.3373L81.5626 39.7766C81.9949 39.412 82.5835 39.983 82.2322 40.4261L53.7255 76.3836C53.6973 76.4192 53.6744 76.4588 53.6575 76.501L49.4791 86.9647C49.137 87.8213 47.8936 87.7209 47.6933 86.8205L45.2194 75.6985C44.6133 72.9735 45.5708 70.1373 47.7047 68.3373Z" fill="#C4ABF9"/>
</svg>
