<svg id="l" xmlns="http://www.w3.org/2000/svg" width="160" height="120" viewBox="0 0 160 120">
  <defs>
    <style>
      .cls-1, .cls-3 {
        fill: #222;
      }

      .cls-2 {
        fill: #fff;
      }

      .cls-3 {
        fill-rule: evenodd;
      }
    </style>
  </defs>
  <ellipse class="cls-1" cx="33" cy="58" rx="12" ry="14"/>
  <circle class="cls-2" cx="41" cy="56" r="6"/>
  <ellipse id="Ellipse_1_copy" data-name="Ellipse 1 copy" class="cls-1" cx="103" cy="58" rx="12" ry="14"/>
  <circle id="Ellipse_2_copy" data-name="Ellipse 2 copy" class="cls-2" cx="111" cy="56" r="6"/>
  <path id="ee" class="cls-3" d="M60,57c0-16.632-10.949-32.435-28.77-32.435A26.843,26.843,0,0,0,8.79,36.049c-5.148,7-6.468,15.18-6.468,23.5,0,10.032,3.036,18.745,8.448,25.081A26.779,26.779,0,0,0,31.758,94a26.4,26.4,0,0,0,18.877-7.656,24.54,24.54,0,0,0,7.392-13.86H51.163a18.46,18.46,0,0,1-5.016,9.372,19.587,19.587,0,0,1-14.388,5.808c-7.128,0-12.276-2.64-15.972-7C11.562,75.651,9,71.469,9,57H60Zm69,0c0-16.632-10.483-32.435-28.3-32.435a26.843,26.843,0,0,0-22.44,11.484c-5.148,7-6.468,15.18-6.468,23.5,0,10.032,3.036,18.745,8.448,25.081A26.779,26.779,0,0,0,101.224,94,26.4,26.4,0,0,0,120.1,86.343a24.54,24.54,0,0,0,7.392-13.86h-6.864a18.46,18.46,0,0,1-5.016,9.372,19.587,19.587,0,0,1-14.389,5.808c-7.128,0-12.276-2.64-15.972-7C81.028,75.651,78,70.24,78,57,78,57,79.417,57.346,129,57Z"/>
  <path class="cls-3" d="M132.322,22.438l16.037-11.951,2.988,4.009L135.31,26.447Z"/>
  <path id="Rectangle_1_copy" data-name="Rectangle 1 copy" class="cls-3" d="M121.123,17.375l7.036-10.847,4.2,2.721L125.318,20.1Z"/>
</svg>
