<svg width="256" height="256" viewBox="0 0 256 256" fill="none" xmlns="http://www.w3.org/2000/svg">
<path d="M128.573 53.2499C119.564 50.7016 110.511 48.2568 101.302 46.5454C101.296 97.2131 101.291 147.879 101.302 198.545C112.796 202.186 124.291 205.823 135.788 209.454C135.804 184.722 135.802 159.989 135.799 135.255C135.797 117.39 135.795 99.526 135.8 81.6617C135.871 79.2466 136.28 76.6702 137.838 74.73C138.775 73.5185 140.389 72.8775 141.903 73.1643C143.4 73.4793 144.89 74.0623 146.038 75.0951C147.772 76.5887 148.671 78.8063 149.082 81.0066C149.532 83.2007 149.517 85.436 149.503 87.6669C149.498 88.3234 149.494 88.9795 149.501 89.6341C149.51 95.6114 149.505 101.59 149.5 107.568C149.492 117.502 149.484 127.436 149.539 137.369C154.339 139.598 159.528 141.297 164.877 141.242C168.403 141.313 171.962 140.516 175.072 138.846C178.313 137.112 180.984 134.422 182.905 131.312C185.081 127.791 186.389 123.793 187.125 119.738C188.012 115.073 188.021 110.305 187.87 105.579C187.55 98.3352 186.465 90.9678 183.297 84.373C181.559 80.7207 179.188 77.4024 176.295 74.5701C173.624 71.8557 170.498 69.6303 167.244 67.6603C159.979 63.3599 151.993 60.4763 143.972 57.9296C138.866 56.2856 133.725 54.7419 128.573 53.2499Z" fill="#9A8BF8"/>
<path d="M68.7006 147.593C62.3456 149.847 55.9907 152.1 49.6329 154.344C48.538 154.741 47.4378 155.126 46.3375 155.511C43.7647 156.411 41.1912 157.311 38.6816 158.376C34.5281 160.116 30.4265 162.069 26.71 164.628C25.1033 165.719 23.6444 167.12 22.8096 168.895C21.9434 170.674 21.893 172.802 22.5879 174.647C23.418 176.824 25.0498 178.593 26.8735 180.001C30.1875 182.511 34.1304 184.038 38.0968 185.183C50.1942 189.151 62.9597 191.117 75.6954 190.83C82.02 190.73 88.3163 189.974 94.5387 188.86C94.6056 188.193 94.5994 187.521 94.5931 186.849C94.5901 186.527 94.5871 186.204 94.5922 185.882C94.5887 184.028 94.5906 182.175 94.5926 180.321C94.5958 177.209 94.5991 174.098 94.5765 170.988C90.7851 172.34 86.9981 173.708 83.2123 175.077C81.9386 175.537 80.665 175.997 79.3914 176.457C77.4452 177.186 75.48 177.871 73.4378 178.272C70.4178 178.936 67.3192 179.167 64.2347 179.215C61.4678 179.09 58.6286 178.94 56.0314 177.886C55.0976 177.48 54.0852 176.941 53.6796 175.952C53.3573 175.114 53.8383 174.247 54.4279 173.661C55.6934 172.412 57.3772 171.713 59.0184 171.094C63.5407 169.484 68.0615 167.868 72.5828 166.251C79.8969 163.635 87.212 161.019 94.5356 158.431C94.6063 157.866 94.6009 157.297 94.5954 156.727C94.5932 156.499 94.5911 156.272 94.5937 156.044C94.5899 153.627 94.5916 151.209 94.5933 148.793C94.5957 145.341 94.5982 141.891 94.5843 138.441C85.9515 141.476 77.326 144.535 68.7006 147.593Z" fill="#9A8BF8"/>
<path d="M179.528 147.088C176.42 147.196 173.311 147.305 170.22 147.661C160.746 148.747 151.339 150.658 142.332 153.809C142.327 158.236 142.328 162.662 142.329 167.089C142.329 169.548 142.329 172.007 142.329 174.467C149.24 172.061 156.142 169.635 163.045 167.208C168.581 165.262 174.116 163.316 179.657 161.381C183.801 159.987 188.195 159.453 192.552 159.423C195.334 159.502 198.183 159.701 200.799 160.733C201.722 161.133 202.725 161.666 203.144 162.63C203.547 163.733 202.744 164.755 201.923 165.397C200.341 166.658 198.422 167.321 196.521 167.977C196.014 168.153 195.508 168.327 195.01 168.513L192.289 169.481C175.719 175.375 159.152 181.269 142.58 187.145C142.311 187.196 142.32 187.456 142.328 187.691C142.33 187.773 142.333 187.851 142.324 187.917C142.331 191.655 142.33 195.394 142.328 199.135C142.328 201.808 142.327 204.48 142.329 207.154C160.313 200.708 178.302 194.269 196.29 187.83C201.274 186.046 206.258 184.262 211.242 182.478C212.176 182.134 213.116 181.802 214.055 181.471C216.904 180.466 219.754 179.46 222.453 178.089C225.824 176.387 229.182 174.434 231.722 171.594C233.059 170.082 233.989 168.113 233.882 166.06C233.862 163.54 232.307 161.332 230.505 159.694C227.506 157.008 223.755 155.353 220.007 153.988C219.034 153.68 218.073 153.337 217.113 152.993C215.999 152.595 214.885 152.197 213.751 151.854C202.998 148.49 191.698 147.097 180.457 147.055C180.148 147.066 179.838 147.077 179.528 147.088Z" fill="#9A8BF8"/>
</svg>
