<svg width="256" height="256" viewBox="0 0 256 256" fill="none" xmlns="http://www.w3.org/2000/svg">
<path fill-rule="evenodd" clip-rule="evenodd" d="M128.529 214.003C175.735 214.003 214.003 175.735 214.003 128.529C214.003 81.3229 175.735 43.0547 128.529 43.0547C81.3229 43.0547 43.0547 81.3229 43.0547 128.529C43.0547 175.735 81.3229 214.003 128.529 214.003ZM80.6042 110.516C113.753 102.432 151.975 105.905 176.679 120.573C180.697 122.959 185.89 121.635 188.276 117.616C190.662 113.597 189.338 108.405 185.319 106.019C155.861 88.5287 112.84 85.2325 76.5939 94.0723C72.0531 95.1797 69.2698 99.7585 70.3772 104.299C71.4846 108.84 76.0634 111.623 80.6042 110.516ZM85.5643 135.031C97.6316 131.527 112.575 130.675 127.48 132.297C142.383 133.919 156.734 137.96 167.647 143.806C170.943 145.571 175.046 144.331 176.811 141.035C178.577 137.739 177.337 133.636 174.041 131.87C161.257 125.022 145.142 120.599 128.945 118.836C112.748 117.074 95.9565 117.914 81.7891 122.027C78.1983 123.069 76.1324 126.825 77.1749 130.416C78.2174 134.007 81.9734 136.073 85.5643 135.031ZM159.982 168.549C137.306 156.401 110.743 152.438 85.938 159.64C83.2449 160.422 80.4278 158.872 79.646 156.179C78.8641 153.486 80.4135 150.669 83.1067 149.887C110.771 141.856 140.062 146.356 164.778 159.597C167.25 160.921 168.18 163.999 166.856 166.471C165.532 168.943 162.454 169.873 159.982 168.549Z" fill="white"/>
</svg>
