<svg width="101" height="101" viewBox="0 0 101 101" fill="none" xmlns="http://www.w3.org/2000/svg">
<path fill-rule="evenodd" clip-rule="evenodd" d="M50.5 101C78.3901 101 101 78.3901 101 50.5C101 22.6099 78.3901 0 50.5 0C22.6099 0 0 22.6099 0 50.5C0 78.3901 22.6099 101 50.5 101ZM22.1851 39.8574C41.7695 35.0811 64.3521 37.1333 78.9478 45.7993C81.3218 47.209 84.3896 46.4268 85.7993 44.0527C87.2095 41.6782 86.4272 38.6104 84.0527 37.2007C66.6484 26.8672 41.2305 24.9194 19.8154 30.1421C17.1328 30.7964 15.4883 33.502 16.1426 36.1846C16.7969 38.8672 19.502 40.5117 22.1851 39.8574ZM25.1152 54.3413C32.2446 52.2715 41.0737 51.7681 49.8799 52.7266C58.6846 53.6846 67.1636 56.0718 73.6113 59.5259C75.5586 60.5688 77.9829 59.8359 79.0259 57.8887C80.0693 55.9414 79.3364 53.5171 77.3892 52.4741C69.8364 48.4277 60.3154 45.8149 50.7451 44.7734C41.1763 43.7319 31.2554 44.2285 22.8848 46.6587C20.7632 47.2744 19.543 49.4937 20.1587 51.6152C20.7744 53.7368 22.9937 54.957 25.1152 54.3413ZM69.083 74.1445C55.6855 66.9673 39.9917 64.626 25.3364 68.8809C23.7451 69.3428 22.0806 68.4272 21.6187 66.8364C21.1567 65.2451 22.0723 63.5806 23.6636 63.1187C40.0078 58.3735 57.314 61.0327 71.9165 68.8555C73.377 69.6382 73.9268 71.4561 73.144 72.9165C72.3618 74.377 70.5435 74.9268 69.083 74.1445Z" fill="white"/>
</svg>
