<svg width="104" height="104" viewBox="0 0 104 104" fill="none" xmlns="http://www.w3.org/2000/svg">
<path fill-rule="evenodd" clip-rule="evenodd" d="M3.09929 66.8776C9.46813 87.7806 28.9045 103 51.89 103C80.0564 103 102.89 80.1663 102.89 52C102.89 23.8337 80.0564 1 51.89 1C24.8632 1 2.74675 22.0263 1 48.6117C1.00739 48.6241 1.01476 48.6364 1.02213 48.6488C1.02238 48.6445 1.02252 48.6423 1.02252 48.6423L28.427 59.9372C29.1762 59.4301 29.9764 59.0028 30.8145 58.6622C32.7397 57.8701 34.767 57.5147 36.7879 57.6071L49.2669 39.4782L49.2621 39.2264H49.2462C49.2462 28.526 57.9369 19.8241 68.6182 19.8241C79.3203 19.8464 87.9903 28.526 87.9903 39.2264C87.9903 49.9269 79.3043 58.6383 68.6182 58.6383L68.18 58.6303L50.3411 71.3883C50.3926 73.3857 50.0211 75.3714 49.251 77.215C47.8074 80.6762 45.049 83.423 41.5818 84.852C38.1145 86.2809 34.2218 86.2753 30.7587 84.8364C26.3568 83.0035 23.3605 79.1913 22.4043 74.8436L3.09929 66.8776ZM31.997 81.8497C37.5545 84.1654 43.9486 81.5405 46.2659 75.9624H46.2531C47.372 73.2753 47.3783 70.2998 46.2691 67.6016C45.1598 64.9033 43.088 62.7932 40.3786 61.6728C37.7043 60.562 34.8451 60.5938 32.3301 61.5501L38.8645 64.2515C40.8326 65.0738 42.3937 66.6437 43.205 68.6163C44.0164 70.5888 44.0115 72.8028 43.1915 74.7718C42.7866 75.7463 42.1936 76.6314 41.4465 77.3767C40.6994 78.1219 39.8127 78.7126 38.8372 79.115C37.8617 79.5174 36.8165 79.7237 35.7612 79.722C34.7059 79.7204 33.6614 79.5108 32.6871 79.1052L26.3807 76.4915C27.532 78.9062 29.5309 80.8132 31.997 81.8497ZM59.5115 48.3609C61.9306 50.7844 65.2115 52.1504 68.6358 52.1597C72.0605 52.1513 75.3423 50.7856 77.7621 48.362C80.1818 45.9384 81.5422 42.6544 81.5451 39.2296C81.5414 35.8054 80.1806 32.5222 77.7609 30.0993C75.3413 27.6763 72.06 26.3111 68.6358 26.3027C65.2121 26.312 61.9316 27.6776 59.5126 30.1004C57.0937 32.5233 55.7334 35.8059 55.7296 39.2296C55.7325 42.6539 57.0925 45.9373 59.5115 48.3609ZM61.7992 32.3462C59.9822 34.1677 58.9628 36.6361 58.9649 39.2089H58.9633C58.962 41.7814 59.9821 44.2492 61.7993 46.0701C63.6166 47.8909 66.0824 48.9158 68.6549 48.9196C71.2282 48.9171 73.6952 47.8927 75.5135 46.0717C77.3318 44.2508 78.3525 41.7822 78.3513 39.2089C78.3513 33.8459 74.0019 29.495 68.6549 29.495C66.0821 29.4992 63.6162 30.5248 61.7992 32.3462Z" fill="white"/>
</svg>
