<svg width="256" height="256" viewBox="0 0 256 256" fill="none" xmlns="http://www.w3.org/2000/svg">
<path d="M44.8098 152.758C55.5894 188.138 88.4867 213.897 127.391 213.897C175.064 213.897 213.712 175.25 213.712 127.577C213.712 79.9035 175.064 41.2561 127.391 41.2561C81.6466 41.2561 44.2131 76.8445 41.2567 121.842C41.2691 121.863 41.2815 121.884 41.294 121.904C41.2944 121.897 41.2946 121.893 41.2946 121.893L87.6785 141.011C88.9465 140.153 90.3009 139.429 91.7194 138.853C94.978 137.512 98.4092 136.911 101.83 137.067L122.951 106.383L122.943 105.957H122.916C122.916 87.8454 137.626 73.1169 155.705 73.1169C173.818 73.1547 188.493 87.8454 188.493 105.957C188.493 124.068 173.791 138.812 155.705 138.812L154.963 138.799L124.769 160.392C124.857 163.773 124.228 167.134 122.924 170.255C120.481 176.113 115.812 180.762 109.944 183.181C104.075 185.599 97.4865 185.59 91.625 183.154C84.1744 180.052 79.1031 173.6 77.4846 166.241L44.8098 152.758Z" fill="#9A8BF8"/>
<path d="M93.7209 178.099C103.127 182.018 113.95 177.576 117.872 168.134H117.85C119.744 163.586 119.755 158.55 117.877 153.983C116 149.416 112.493 145.845 107.907 143.948C103.381 142.068 98.5414 142.122 94.2847 143.741L105.345 148.313C108.676 149.705 111.318 152.362 112.691 155.701C114.064 159.039 114.056 162.787 112.668 166.119C111.983 167.769 110.979 169.267 109.715 170.528C108.45 171.789 106.949 172.789 105.298 173.47C103.647 174.152 101.878 174.501 100.092 174.498C98.3059 174.495 96.5379 174.14 94.889 173.454L84.2149 169.03C86.1635 173.117 89.5468 176.345 93.7209 178.099Z" fill="#9A8BF8"/>
<path fill-rule="evenodd" clip-rule="evenodd" d="M140.291 121.417C144.385 125.519 149.939 127.831 155.734 127.847C161.531 127.833 167.086 125.521 171.181 121.419C175.277 117.317 177.579 111.759 177.584 105.962C177.578 100.166 175.275 94.6092 171.179 90.5083C167.084 86.4073 161.53 84.0966 155.734 84.0823C149.939 84.098 144.387 86.4093 140.293 90.5102C136.199 94.611 133.896 100.167 133.89 105.962C133.895 111.758 136.196 117.315 140.291 121.417ZM144.163 94.3114C141.088 97.3943 139.362 101.572 139.366 105.927H139.363C139.361 110.281 141.087 114.458 144.163 117.54C147.239 120.622 151.412 122.356 155.767 122.363C160.122 122.359 164.298 120.625 167.375 117.543C170.453 114.461 172.18 110.282 172.178 105.927C172.178 96.8497 164.817 89.4854 155.767 89.4854C151.412 89.4926 147.238 91.2284 144.163 94.3114Z" fill="#9A8BF8"/>
</svg>
