<svg width="256" height="256" viewBox="0 0 256 256" fill="none" xmlns="http://www.w3.org/2000/svg">
<path fill-rule="evenodd" clip-rule="evenodd" d="M167.723 50.8822H139.425V206.598H167.723C189.832 206.598 203.742 187.504 203.742 165.976V91.5038C203.742 70.5583 190.995 50.8822 167.723 50.8822ZM169.892 152.436C178.305 152.436 185.125 145.616 185.125 137.203C185.125 128.79 178.305 121.97 169.892 121.97C161.479 121.97 154.659 128.79 154.659 137.203C154.659 145.616 161.479 152.436 169.892 152.436Z" fill="white"/>
<path fill-rule="evenodd" clip-rule="evenodd" d="M88.6475 63.5765H109.804V193.904H88.6475C73.2237 193.904 60.7202 181.4 60.7202 165.976V91.5038C60.7202 76.08 73.2237 63.5765 88.6475 63.5765ZM122.499 50.8823V206.598H88.6475C66.2128 206.598 48.026 188.411 48.026 165.976V91.5038C48.026 69.0691 66.2128 50.8823 88.6475 50.8823H122.499Z" fill="white"/>
<path d="M100.496 97.4275C100.496 105.373 94.0549 111.814 86.1093 111.814C78.1637 111.814 71.7226 105.373 71.7226 97.4275C71.7226 89.4819 78.1637 83.0407 86.1093 83.0407C94.0549 83.0407 100.496 89.4819 100.496 97.4275Z" fill="white"/>
</svg>
