<svg width="256" height="256" viewBox="0 0 256 256" fill="none" xmlns="http://www.w3.org/2000/svg">
<path d="M134.592 164.675V41.6796C144.226 41.6798 156.001 41.6799 159.747 41.6796C160.818 50.6708 163.494 60.2012 173.306 70.0911C183.119 79.9811 196.023 82.7379 200.781 82.8578V111.629C194.279 111.629 185.616 110.969 177.053 106.774C168.489 102.578 160.805 93.9116 159.212 91.1294V161.798C159.212 190.928 137.625 213.554 107.652 214.305C76.9665 215.073 56.7975 188.732 55.3789 167.372C52.5248 124.396 88.9198 107.853 110.15 109.471V135.545C83.746 134.286 79.3932 156.837 80.5347 165.754C81.2483 171.328 86.6005 188.77 107.474 188.77C126.028 188.77 133.997 173.306 134.592 164.675Z" fill="white"/>
</svg>
