<svg width="110" height="110" viewBox="0 0 110 110" fill="none" xmlns="http://www.w3.org/2000/svg">
<path d="M59.0755 1.5L58.5755 1.49999V2V77.5003C58.3949 80.0373 57.1159 83.6217 54.4831 86.5693C51.858 89.5084 47.8901 91.8123 42.3083 91.8123C36.0166 91.8123 32.1026 89.2115 29.6954 86.2165C27.2712 83.2003 26.3597 79.761 26.1476 78.1164C25.8073 75.4764 26.2895 70.7695 28.8401 66.8354C31.3651 62.9407 35.9476 59.7532 43.9393 60.1316L44.4629 60.1563V59.6321V43.6233V43.1597L44.0006 43.1247C37.3105 42.6183 28.2768 44.9483 21.1312 50.7425C13.9632 56.555 8.70548 65.8464 9.59904 79.2073C10.491 92.5438 23.1468 108.969 42.431 108.49C61.2317 108.022 74.7981 93.9108 74.7981 75.7512V33.9248C75.5355 34.8475 76.5913 36.0083 77.8536 37.2022C79.8475 39.088 82.4008 41.0986 85.1102 42.4168C90.5048 45.0414 95.9495 45.4481 100 45.4481H100.5V44.9481V27.283V26.7953L100.013 26.7831C97.1685 26.712 89.3228 25.0528 83.3662 19.091C77.3995 13.119 75.7781 7.3836 75.1255 1.94048L75.0727 1.49997L74.629 1.5C72.3125 1.50015 65.0322 1.50008 59.0755 1.5Z" fill="white" stroke="white"/>
</svg>
