<svg width="110" height="110" viewBox="0 0 110 110" fill="none" xmlns="http://www.w3.org/2000/svg">
<path d="M58.8944 3.5L58.3944 3.49999V4V76.6507C58.2219 79.0885 57.0011 82.5338 54.4884 85.3667C51.9833 88.1911 48.198 90.4043 42.8724 90.4043C36.8689 90.4043 33.1353 87.9058 30.8385 85.0281C28.5246 82.129 27.6544 78.8227 27.4521 77.2421C27.1272 74.7046 27.5876 70.1793 30.0223 66.3977C32.4313 62.6558 36.8024 59.5931 44.4296 59.9567L44.9534 59.9817V59.4573V44.0526V43.5892L44.4915 43.554C38.0919 43.0662 29.4535 45.3104 22.6212 50.8896C15.7665 56.487 10.7405 65.4333 11.5947 78.2949C12.4473 91.1333 24.5463 106.952 42.9903 106.49C60.9705 106.04 73.9404 92.4496 73.9404 74.9681V34.7815C74.6438 35.662 75.6378 36.7591 76.8214 37.8864C78.7274 39.7017 81.1691 41.6381 83.761 42.908C88.9207 45.4359 94.1279 45.8274 98 45.8274H98.5V45.3274V28.3289V27.8413L98.0126 27.829C95.3003 27.7607 87.8096 26.1661 82.1224 20.4339C76.4248 14.6912 74.8764 9.17642 74.2531 3.94089L74.2006 3.49997L73.7566 3.5C71.5431 3.50015 64.5863 3.50008 58.8944 3.5Z" fill="white" stroke="white"/>
</svg>
