<svg width="120" height="120" viewBox="0 0 120 120" fill="none" xmlns="http://www.w3.org/2000/svg">
<rect width="120" height="120" fill="#ABC3FF"/>
<path d="M69.3433 22.4055C61.6536 25.9391 57.3158 36.3435 59.2875 45.1775C39.6335 44.2183 23.4819 32.3854 17.3102 24.5189C17.1258 24.2839 16.7573 24.3399 16.6597 24.6222C13.7596 33.0114 15.5228 45.3267 23.4021 51.0669C20.1519 51.0669 16.5537 49.8065 14.7053 48.9794C14.4442 48.8625 14.1456 49.0587 14.162 49.3444C14.7041 58.8247 21.2996 64.8842 30.1059 68.7348C26.1619 69.8567 25.0802 69.3756 21.7487 69.3274C21.4936 69.3237 21.3105 69.5736 21.3926 69.8152C24.7319 79.6436 35.1152 83.0074 39.9646 83.458C32.3674 90.2655 23.6726 92.155 11.7654 91.9338C11.3806 91.9266 11.2327 92.4283 11.5629 92.626C36.6321 107.638 69.8314 96.0082 79.9906 86.7953C98.722 70.6979 100.102 45.3739 99.7079 40.2698C102.642 38.3224 106.72 33.5618 108.984 30.6804C109.217 30.3837 108.914 29.9788 108.559 30.1079C103.598 31.9155 103.08 32.0799 98.1305 32.81C103.04 30.2223 105.68 25.1342 106.596 22.3342C106.692 22.0395 106.4 21.7827 106.112 21.8996C101.606 23.7325 98.852 25.2009 93.5955 26.1354C86.103 19.0682 77.033 18.8719 69.3433 22.4055Z" fill="white"/>
</svg>
