<svg width="90" height="90" viewBox="0 0 90 90" fill="none" xmlns="http://www.w3.org/2000/svg">
<path d="M52.6836 11.9719C45.9422 15.0696 42.1394 24.1909 43.868 31.9353C26.638 31.0944 12.4784 20.7209 7.06783 13.8246C6.90619 13.6185 6.5832 13.6677 6.49764 13.9152C3.9552 21.2697 5.50095 32.0661 12.4084 37.0983C9.55913 37.0983 6.40465 35.9934 4.78428 35.2683C4.55532 35.1658 4.29361 35.3378 4.30793 35.5883C4.78316 43.8993 10.5652 49.2115 18.2855 52.5872C14.8279 53.5707 13.8795 53.149 10.959 53.1067C10.7353 53.1035 10.5748 53.3226 10.6467 53.5344C13.5742 62.1506 22.6769 65.0995 26.9282 65.4946C20.2681 71.4625 12.6456 73.1189 2.20693 72.9249C1.86955 72.9187 1.73993 73.3585 2.02943 73.5318C24.0067 86.692 53.1114 76.4968 62.0177 68.4202C78.4389 54.3082 79.6489 32.1074 79.3032 27.6329C81.8753 25.9256 85.4508 21.7522 87.4356 19.2262C87.6399 18.9661 87.3736 18.6111 87.0628 18.7243C82.7138 20.309 82.2595 20.4531 77.9203 21.0931C82.2242 18.8246 84.5389 14.364 85.3417 11.9094C85.4262 11.651 85.1697 11.4259 84.9179 11.5283C80.9673 13.1351 78.5529 14.4225 73.9447 15.2417C67.3762 9.04618 59.4249 8.87408 52.6836 11.9719Z" fill="white"/>
</svg>
