<svg width="256" height="256" viewBox="0 0 256 256" fill="none" xmlns="http://www.w3.org/2000/svg">
<path d="M141.534 72.6268C130.124 77.87 123.687 93.3082 126.613 106.416C97.2381 104.983 73.1359 87.1787 64.1291 75.5088C63.9429 75.2676 63.5704 75.3268 63.4678 75.6138C59.0164 88.0664 61.5796 106.568 73.3659 115.155C68.3816 115.155 62.8456 113.157 60.1946 111.936C59.9295 111.814 59.6259 112.016 59.64 112.307C60.3247 126.542 70.156 135.618 83.3132 141.371C77.3671 143.062 75.8055 142.298 70.6721 142.247C70.4118 142.245 70.2268 142.501 70.3084 142.748C75.1801 157.506 90.7089 162.545 97.9416 163.217C86.5337 173.439 73.4578 176.188 55.4617 175.781C55.0692 175.772 54.9174 176.286 55.2524 176.49C92.5127 199.265 142.184 181.906 157.333 168.169C185.127 144.284 187.175 106.708 186.589 99.1341C191.106 96.1364 197.45 88.6464 200.719 84.4375C200.956 84.1336 200.64 83.7215 200.279 83.8533L200.248 83.8643C192.394 86.727 191.764 86.9566 184.249 88.0652C191.73 84.1221 195.66 76.2664 196.914 72.193C197.007 71.8907 196.708 71.6269 196.415 71.7454C189.536 74.526 185.444 76.7525 177.52 78.1613C166.402 67.6749 152.944 67.3836 141.534 72.6268Z" fill="white"/>
</svg>
