<svg width="256" height="256" viewBox="0 0 256 256" fill="none" xmlns="http://www.w3.org/2000/svg">
<path d="M144.295 60.6087C130.438 66.9764 122.621 85.7256 126.174 101.645C90.4988 99.9037 61.2276 78.2815 50.2892 64.1088C50.0631 63.8159 49.6106 63.8878 49.4861 64.2363C44.08 79.3596 47.1929 101.83 61.5069 112.258C55.4537 112.258 48.7304 109.831 45.5109 108.349C45.1889 108.2 44.8202 108.445 44.8373 108.799C45.6689 126.086 57.6086 137.109 73.5875 144.096C66.3662 146.15 64.4697 145.222 58.2354 145.16C57.9193 145.157 57.6946 145.468 57.7937 145.768C63.7102 163.691 82.5694 169.811 91.3532 170.628C77.4987 183.042 61.6185 186.38 39.763 185.885C39.2862 185.874 39.1018 186.498 39.5087 186.747C84.7601 214.406 145.084 193.325 163.482 176.642C197.236 147.633 199.723 101.999 199.013 92.8009C204.498 89.1603 212.202 80.0639 216.173 74.9524C216.46 74.5833 216.077 74.0828 215.638 74.2429L215.601 74.2563C206.063 77.7329 205.298 78.0118 196.17 79.358C205.255 74.5693 210.028 65.0289 211.552 60.0819C211.665 59.7147 211.302 59.3943 210.946 59.5383C202.591 62.9152 197.622 65.6193 187.998 67.3302C174.496 54.5949 158.152 54.2411 144.295 60.6087Z" fill="white"/>
</svg>
