<svg width="120" height="120" viewBox="0 0 120 120" fill="none" xmlns="http://www.w3.org/2000/svg">
<g clip-path="url(#clip0)">
<rect width="120" height="120" fill="#998AF9"/>
<rect width="170.312" height="170.312" transform="translate(-25 -25)" fill="#998AF9"/>
<path d="M113.337 59.8544C104.414 76.4315 86.1771 93.6802 59.6149 93.6802C46.559 93.6802 34.8342 88.0065 25.5292 80.9028C16.2224 73.7978 9.41491 65.3209 6.20961 59.865C5.95932 59.4389 5.95495 58.9223 6.19687 58.4947C9.38211 52.8656 16.1768 44.6353 25.4855 37.8179C34.7887 31.0046 46.5298 25.655 59.6149 25.655C86.0767 25.655 106.063 44.4461 113.355 58.508C113.572 58.9276 113.567 59.4265 113.337 59.8544Z" fill="white" stroke="white" stroke-width="1.82953"/>
<path d="M60.0001 80.2911C71.4821 80.2911 80.7902 70.9831 80.7902 59.501C80.7902 59.1644 80.7822 58.8296 80.7663 58.4969C80.7325 57.7843 79.6811 57.6921 79.3615 58.3299C77.136 62.7719 72.5416 65.8212 67.235 65.8212C59.7487 65.8212 53.6799 59.7524 53.6799 52.2661C53.6799 46.9595 56.7292 42.3651 61.1711 40.1396C61.809 39.82 61.7168 38.7686 61.0042 38.7348C60.6715 38.7189 60.3367 38.7109 60.0001 38.7109C48.518 38.7109 39.21 48.019 39.21 59.501C39.21 70.9831 48.518 80.2911 60.0001 80.2911Z" fill="#5F4E9A"/>
</g>
<defs>
<clipPath id="clip0">
<rect width="120" height="120" fill="white"/>
</clipPath>
</defs>
</svg>
