<svg width="126" height="126" viewBox="0 0 126 126" fill="none" xmlns="http://www.w3.org/2000/svg">
<path fill-rule="evenodd" clip-rule="evenodd" d="M108.961 24.4405C113.986 25.7856 117.935 29.7346 119.28 34.7597C121.711 43.8587 121.721 62.8542 121.721 62.8542C121.721 62.8542 121.721 81.8497 119.28 90.9488C117.935 95.9738 113.986 99.9228 108.961 101.268C99.8622 103.708 63.3602 103.708 63.3602 103.708C63.3602 103.708 26.8587 103.708 17.7597 101.268C12.7346 99.9228 8.78564 95.9738 7.44049 90.9488C5 81.8497 5 62.8542 5 62.8542C5 62.8542 5 43.8587 7.44049 34.7597C8.78564 29.7346 12.7346 25.7856 17.7597 24.4405C26.8587 22 63.3602 22 63.3602 22C63.3602 22 99.8622 22 108.961 24.4405ZM82.0009 62.8554L51.6772 80.3614V45.3491L82.0009 62.8554Z" fill="white"/>
</svg>
