<svg width="256" height="256" viewBox="0 0 256 256" fill="none" xmlns="http://www.w3.org/2000/svg">
<path fill-rule="evenodd" clip-rule="evenodd" d="M205.368 62.3122C213.873 64.589 220.558 71.2729 222.834 79.7782C226.948 95.1787 226.965 127.33 226.965 127.33C226.965 127.33 226.965 159.481 222.834 174.882C220.558 183.387 213.873 190.071 205.368 192.347C189.968 196.478 128.186 196.478 128.186 196.478C128.186 196.478 66.405 196.478 51.0044 192.347C42.4992 190.071 35.8152 183.387 33.5385 174.882C29.4078 159.481 29.4078 127.33 29.4078 127.33C29.4078 127.33 29.4078 95.1787 33.5385 79.7782C35.8152 71.2729 42.4992 64.589 51.0044 62.3122C66.405 58.1815 128.186 58.1815 128.186 58.1815C128.186 58.1815 189.968 58.1815 205.368 62.3122ZM159.737 127.332L108.412 156.962V97.7012L159.737 127.332Z" fill="white"/>
</svg>
